<svg xmlns="http://www.w3.org/2000/svg" width="36" height="36" viewBox="0 0 36 36"><defs><style>.a{fill:#707070;fill-rule:evenodd;}</style></defs><path class="a" d="M19.557,8.195l-1.87-2.144a8.632,8.632,0,0,0-13.38,0,12,12,0,0,0,0,15.341l15.2,17.433,0,0,.045.052,15.2-17.433a12,12,0,0,0,0-15.341,8.632,8.632,0,0,0-13.38,0Zm-.042,25.048,8.491-9.736,2.5-2.763,0,0,1.828-2.1a7.637,7.637,0,0,0,0-9.763,5.493,5.493,0,0,0-8.515,0l-4.259,4.883-.013-.014,0,0L15.255,8.84a5.493,5.493,0,0,0-8.515,0,7.638,7.638,0,0,0,0,9.763l4.368,5.009,0,0Z" transform="translate(-1.536 -2.874)"/></svg>