<svg xmlns="http://www.w3.org/2000/svg" width="33" height="30" viewBox="0 0 33 30"><defs><style>.a{fill:#181818;fill-rule:evenodd;}</style></defs><path class="a" d="M18.055,7.308,16.341,5.522a8.426,8.426,0,0,0-12.265,0,9.313,9.313,0,0,0,0,12.784L18.014,32.834l0,0,.041.043L32,18.346A9.313,9.313,0,0,0,32,5.562a8.426,8.426,0,0,0-12.265,0Zm-.039,20.874L25.8,20.068l2.288-2.3,0,0,1.675-1.746a5.926,5.926,0,0,0,0-8.136,5.362,5.362,0,0,0-7.805,0l-3.9,4.069-.012-.012,0,0-3.933-4.1a5.362,5.362,0,0,0-7.805,0,5.926,5.926,0,0,0,0,8.136l4,4.174,0,0Z" transform="translate(-1.536 -2.874)"/></svg>