<svg xmlns="http://www.w3.org/2000/svg" width="30" height="30" viewBox="0 0 30 30"><defs><style>.a{fill:#181818;fill-rule:evenodd;}</style></defs><path class="a" d="M6.5,5h21A1.5,1.5,0,0,1,29,6.5v21A1.5,1.5,0,0,1,27.5,29H6.5A1.5,1.5,0,0,1,5,27.5V6.5A1.5,1.5,0,0,1,6.5,5ZM2,6.5A4.5,4.5,0,0,1,6.5,2h21A4.5,4.5,0,0,1,32,6.5v21A4.5,4.5,0,0,1,27.5,32H6.5A4.5,4.5,0,0,1,2,27.5ZM17,17c-4.142,0-7.5-4.029-7.5-9h3c0,3.849,2.5,6,4.5,6s4.5-2.151,4.5-6h3C24.5,12.971,21.142,17,17,17Z" transform="translate(-2 -2)"/></svg>