<svg xmlns="http://www.w3.org/2000/svg" width="36" height="36" viewBox="0 0 36 36"><defs><style>.a{fill:#707070;fill-rule:evenodd;}</style></defs><path class="a" d="M7.4,5.6H32.6a1.8,1.8,0,0,1,1.8,1.8V32.6a1.8,1.8,0,0,1-1.8,1.8H7.4a1.8,1.8,0,0,1-1.8-1.8V7.4A1.8,1.8,0,0,1,7.4,5.6ZM2,7.4A5.4,5.4,0,0,1,7.4,2H32.6A5.4,5.4,0,0,1,38,7.4V32.6A5.4,5.4,0,0,1,32.6,38H7.4A5.4,5.4,0,0,1,2,32.6ZM20,20c-4.971,0-9-4.835-9-10.8h3.6c0,4.619,3,7.2,5.4,7.2s5.4-2.581,5.4-7.2H29C29,15.165,24.971,20,20,20Z" transform="translate(-2 -2)"/></svg>